<?xml version="1.0" standalone="no"?>
<!DOCTYPE svg PUBLIC "-//W3C//DTD SVG 20010904//EN"
 "http://www.w3.org/TR/2001/REC-SVG-20010904/DTD/svg10.dtd">
<svg version="1.0" xmlns="http://www.w3.org/2000/svg"
 width="413.000000pt" height="532.000000pt" viewBox="0 0 413.000000 532.000000"
 preserveAspectRatio="xMidYMid meet">

<g transform="translate(0.000000,532.000000) scale(0.100000,-0.100000)"
fill="#000000" stroke="none">
<path d="M1360 5294 c0 -26 -1 -26 -51 -22 -42 4 -53 2 -62 -13 -8 -12 -23
-19 -44 -19 -35 0 -46 -23 -18 -34 19 -7 20 -50 1 -65 -8 -7 -17 -23 -20 -36
-4 -17 -13 -25 -28 -25 -21 0 -21 1 -3 20 22 24 24 78 4 90 -7 5 -16 5 -19 1
-3 -4 -13 -10 -22 -14 -10 -4 -15 -12 -12 -21 3 -9 -5 -21 -20 -31 -14 -10
-26 -24 -26 -31 0 -10 -13 -14 -40 -14 -31 0 -40 -4 -40 -17 -1 -17 -1 -17
-14 0 -7 9 -20 17 -28 17 -8 0 -19 5 -26 12 -9 9 -12 9 -12 0 0 -16 -77 -16
-82 0 -4 10 -10 10 -29 1 l-24 -12 28 0 c15 -1 27 -5 27 -11 0 -15 77 -12 83
3 2 6 7 9 11 5 4 -3 1 -15 -6 -27 -9 -15 -23 -21 -50 -21 -27 0 -38 -4 -38
-15 0 -12 -14 -15 -66 -15 -36 0 -75 -5 -86 -11 -15 -8 -51 -8 -134 2 l-114
12 0 39 c0 31 -3 38 -20 38 -17 0 -20 -7 -20 -40 0 -46 -17 -53 -52 -20 -19
17 -19 20 -5 20 9 0 17 5 17 10 0 12 -13 13 -24 3 -4 -5 -38 -15 -74 -24 -37
-9 -66 -21 -65 -27 3 -12 -36 -4 -57 13 -8 7 -23 15 -32 18 -25 9 -23 31 2 24
10 -3 24 1 31 9 9 12 5 14 -25 14 -20 0 -36 -4 -36 -10 0 -5 -9 -10 -20 -10
-20 0 -20 -7 -20 -1630 0 -896 2 -1630 5 -1630 3 0 58 28 123 62 64 35 200
102 302 151 102 49 253 122 335 162 202 99 366 175 377 175 6 0 48 12 94 26
l84 25 44 87 c79 156 100 189 133 212 24 17 33 30 33 51 0 21 4 27 15 22 9 -3
14 -8 11 -10 -4 -5 9 -22 52 -69 12 -14 22 -29 22 -35 0 -5 11 -9 25 -9 14 0
29 -8 35 -20 6 -11 15 -20 20 -20 12 0 70 -60 70 -71 0 -5 4 -9 10 -9 5 0 24
-10 43 -23 19 -13 61 -29 93 -36 32 -7 68 -17 79 -21 11 -4 37 -8 59 -8 21 0
43 -5 49 -11 16 -16 52 -14 67 4 7 8 29 15 49 15 21 0 46 6 56 14 11 8 25 11
32 9 8 -3 21 1 31 10 9 8 27 18 38 21 12 4 33 17 47 29 14 12 44 38 67 57 58
48 105 97 143 149 l32 43 6 -58 c5 -49 16 -74 63 -149 32 -49 68 -111 81 -136
31 -59 35 -62 132 -92 63 -19 113 -45 210 -110 135 -89 353 -222 423 -257 22
-11 94 -56 158 -99 64 -43 128 -84 142 -91 14 -7 49 -31 78 -52 29 -21 77 -52
107 -69 l55 -30 0 1840 0 1841 -1385 0 -1385 0 0 -26z m847 -169 c89 -6 131
-15 137 -32 5 -12 9 -13 21 -3 12 10 15 9 15 -9 0 -11 5 -21 10 -21 6 0 15
-11 20 -25 5 -14 14 -25 20 -25 5 0 10 -7 10 -15 0 -8 -4 -15 -9 -15 -5 0 -17
-7 -25 -16 -10 -10 -16 -11 -16 -3 0 8 -4 8 -15 -1 -13 -11 -21 -9 -46 9 -17
13 -33 20 -37 16 -4 -3 0 -10 8 -15 23 -15 -1 -12 -54 6 -52 18 -65 15 -41 -9
8 -9 15 -18 15 -21 0 -11 -45 -6 -72 8 -31 16 -47 4 -28 -19 10 -12 9 -15 -9
-15 -13 0 -21 -6 -21 -16 0 -11 -6 -15 -20 -11 -11 3 -20 1 -20 -4 0 -5 -12
-4 -26 1 -22 9 -25 8 -20 -5 9 -24 -19 -29 -55 -11 -35 18 -49 14 -49 -14 0
-23 -26 -33 -50 -20 -27 14 -27 14 -25 -26 1 -30 -1 -35 -17 -31 -11 3 -18 0
-18 -9 0 -36 -118 13 -120 49 0 4 9 3 19 -3 11 -5 39 -10 62 -10 l42 0 -37 34
c-42 40 -47 54 -11 30 13 -9 30 -14 37 -11 8 2 -3 14 -24 27 -41 24 -42 40 -2
40 41 0 26 24 -31 49 -30 13 -55 27 -55 32 0 12 30 26 72 34 34 6 36 9 22 23
-14 14 -14 16 0 24 9 5 30 5 51 -1 19 -5 33 -6 30 -1 -5 8 17 16 95 35 14 3
44 2 65 -4 40 -9 145 -51 155 -61 6 -6 58 -30 65 -30 3 0 5 4 5 8 0 4 -16 14
-35 21 -19 7 -35 16 -35 21 0 5 -17 14 -37 21 -52 16 -57 20 -42 30 8 5 27 6
43 3 15 -3 53 -8 83 -9z m-1104 -72 c-13 -2 -33 -2 -45 0 -13 2 -3 4 22 4 25
0 35 -2 23 -4z m1464 -53 c7 0 10 -7 7 -15 -5 -13 -9 -13 -35 1 -35 17 -38 29
-6 20 12 -3 27 -6 34 -6z m-2515 -12 c-9 -9 -15 -9 -24 0 -9 9 -7 12 12 12 19
0 21 -3 12 -12z m1613 -68 c3 -5 -1 -10 -9 -10 -8 0 -18 5 -21 10 -3 6 1 10 9
10 8 0 18 -4 21 -10z m600 -406 c28 -2 77 -6 110 -9 33 -3 78 -11 100 -19 22
-7 58 -19 81 -25 47 -13 116 -60 139 -95 9 -14 23 -54 30 -89 7 -36 33 -102
58 -148 41 -77 45 -94 57 -199 7 -63 18 -126 26 -140 l13 -25 1 27 c0 30 53
98 76 98 18 0 18 -4 -2 -42 -14 -27 -15 -40 -3 -105 9 -52 17 -72 26 -69 17 7
16 -15 -2 -134 -8 -52 -15 -124 -15 -158 0 -59 -3 -67 -34 -98 -27 -27 -40
-33 -62 -29 -23 4 -33 0 -48 -21 -11 -15 -19 -42 -18 -60 1 -18 -3 -36 -8 -39
-6 -3 -10 -16 -10 -29 0 -23 -49 -127 -74 -155 -7 -9 -28 -43 -46 -76 -45 -83
-78 -125 -98 -125 -9 0 -26 -7 -36 -15 -11 -8 -28 -15 -38 -15 -10 0 -18 -4
-18 -9 0 -18 -64 -71 -95 -79 -28 -8 -79 6 -137 39 -29 15 -96 14 -115 -3 -18
-15 -48 -14 -38 2 6 9 -182 6 -192 -3 -3 -4 -22 -7 -41 -7 -27 0 -42 8 -68 36
-19 19 -34 42 -34 50 0 8 -6 14 -12 14 -21 1 -157 105 -184 141 -14 19 -32 50
-40 69 -9 19 -20 42 -24 52 -5 9 -11 36 -14 60 -3 23 -10 59 -16 78 -5 19 -10
53 -10 75 0 23 -4 45 -9 50 -5 6 -17 35 -26 65 -16 48 -19 52 -26 31 -5 -13
-4 -41 2 -67 21 -82 -31 -86 -82 -6 -22 36 -29 58 -29 98 0 53 -15 141 -51
299 l-20 90 24 55 c42 95 75 104 114 30 13 -25 31 -50 40 -57 12 -9 15 -24 11
-61 -4 -42 -12 -57 -51 -98 -53 -55 -61 -94 -27 -137 11 -14 20 -29 20 -34 0
-5 12 -20 26 -34 l26 -24 -6 25 c-4 14 -12 35 -19 48 -8 17 -8 28 0 41 6 10
18 56 27 102 9 46 25 109 36 139 25 67 37 118 45 190 6 52 46 141 82 182 9 10
18 46 21 84 4 59 9 70 39 100 18 19 50 43 71 54 20 12 65 36 99 56 42 23 83
37 130 44 37 5 84 14 103 19 32 9 107 7 245 -5z"/>
<path d="M2283 5048 c13 -34 49 -63 69 -55 8 3 2 9 -14 15 -16 7 -26 17 -23
24 2 7 -6 21 -19 30 l-24 17 11 -31z"/>
<path d="M2106 5046 c6 -16 28 -27 64 -33 25 -4 25 -4 -5 21 -33 28 -68 35
-59 12z"/>
<path d="M2355 5030 c3 -5 13 -10 21 -10 8 0 12 5 9 10 -3 6 -13 10 -21 10 -8
0 -12 -4 -9 -10z"/>
<path d="M1738 4793 c7 -3 16 -2 19 1 4 3 -2 6 -13 5 -11 0 -14 -3 -6 -6z"/>
<path d="M2485 4000 c-44 -5 -96 -15 -115 -22 -86 -33 -99 -53 -54 -83 24 -15
24 -18 10 -34 -29 -32 -14 -141 18 -141 8 0 19 -6 23 -14 10 -17 53 -31 53
-17 0 5 -9 16 -21 24 -14 11 -17 16 -7 19 11 4 11 7 0 21 -10 12 -11 21 -2 36
15 30 22 27 50 -23 l24 -45 29 21 c17 12 35 34 41 50 16 43 66 31 66 -15 0
-13 5 -17 16 -13 9 3 24 6 35 6 25 0 24 18 -3 48 -16 16 -18 23 -8 20 9 -2 15
4 15 17 0 19 -23 35 -80 56 -30 11 -29 11 38 30 49 14 73 16 87 9 10 -5 29
-10 41 -10 18 0 20 2 8 16 -36 44 -124 59 -264 44z m120 -140 c8 -7 13 -16 10
-20 -6 -9 -105 22 -105 34 0 12 77 1 95 -14z"/>
<path d="M1645 3983 c-79 -34 -74 -42 25 -41 106 1 133 -13 68 -34 -30 -10
-47 -23 -57 -44 -8 -16 -18 -37 -23 -47 -12 -25 0 -57 22 -57 10 0 25 -3 34
-6 11 -4 15 1 13 22 -1 21 4 31 23 40 22 12 25 11 36 -16 24 -55 76 -66 102
-20 9 16 21 29 26 27 16 -5 58 -65 44 -63 -7 0 -15 -3 -18 -9 -3 -5 10 -11 28
-13 23 -2 32 1 32 11 0 8 7 17 15 21 27 10 19 71 -15 110 -32 36 -25 51 19 39
15 -4 21 -1 21 11 0 10 -26 28 -67 47 -61 29 -79 33 -178 36 -87 3 -118 0
-150 -14z m155 -112 c0 -10 -50 -25 -58 -17 -3 3 6 10 19 15 31 13 39 13 39 2z"/>
<path d="M1268 3850 c-9 -14 -20 -37 -23 -53 -8 -31 2 -97 14 -97 12 0 33 101
29 140 l-3 35 -17 -25z"/>
<path d="M2890 3582 c0 -56 3 -72 14 -72 18 0 40 63 31 89 -3 10 -14 26 -25
36 -20 18 -20 17 -20 -53z"/>
<path d="M1994 3296 c-11 -8 -15 -18 -10 -23 5 -4 11 -3 13 3 2 6 16 9 31 6
24 -5 26 -4 13 11 -16 21 -22 21 -47 3z"/>
<path d="M2207 3303 c-17 -16 -4 -31 28 -35 47 -5 66 7 41 27 -21 16 -58 20
-69 8z"/>
<path d="M1976 3221 c-4 -6 -13 -11 -21 -11 -17 0 -75 -35 -120 -73 -33 -27
-54 -75 -38 -86 4 -3 13 -15 19 -26 13 -24 120 -41 142 -22 18 14 327 13 345
-1 17 -15 149 -25 166 -13 12 8 13 16 2 52 -19 62 -36 83 -78 98 -57 19 -86
33 -110 55 -29 24 -74 23 -118 -4 -36 -22 -55 -19 -95 15 -21 19 -86 29 -94
16z m254 -132 c20 1 44 -5 55 -14 19 -14 19 -16 3 -28 -21 -16 -276 -12 -321
5 -64 25 42 51 163 41 36 -3 81 -5 100 -4z"/>
<path d="M2072 2920 c-18 -4 -36 -11 -40 -15 -8 -8 32 -40 70 -56 22 -9 29 -8
47 10 12 12 27 21 35 21 24 0 30 22 11 37 -20 14 -70 16 -123 3z"/>
<path d="M1016 5175 c-3 -9 0 -15 9 -15 8 0 15 7 15 15 0 8 -4 15 -9 15 -5 0
-11 -7 -15 -15z"/>
<path d="M945 5150 c3 -5 8 -10 11 -10 2 0 4 5 4 10 0 6 -5 10 -11 10 -5 0 -7
-4 -4 -10z"/>
<path d="M1474 2613 c-36 -122 -17 -308 45 -431 66 -130 160 -227 313 -322 40
-25 96 -67 125 -94 43 -39 54 -45 59 -32 3 9 17 16 30 16 15 0 24 6 24 16 0 8
5 12 10 9 22 -13 -3 46 -31 76 -16 17 -29 35 -29 40 0 5 -6 9 -14 9 -8 0 -21
9 -29 20 -8 11 -17 17 -20 13 -4 -3 -16 6 -27 20 -11 14 -36 32 -55 38 -19 7
-35 19 -35 27 0 7 -4 11 -9 8 -5 -3 -21 1 -37 9 -15 7 -31 12 -36 9 -4 -3 -11
3 -15 13 -6 17 -49 63 -59 63 -13 0 -94 101 -94 116 0 5 -19 45 -42 91 -37 74
-43 81 -54 65 -12 -16 -13 -15 -14 7 0 14 9 43 19 65 19 39 24 81 22 169 -2
58 -26 47 -47 -20z"/>
<path d="M2684 2554 c4 -33 8 -97 8 -144 2 -74 -2 -93 -26 -147 -16 -35 -32
-63 -37 -63 -4 0 -11 -10 -15 -22 -8 -28 -191 -208 -210 -208 -9 0 -13 -4 -10
-8 3 -4 -11 -21 -30 -37 -19 -16 -34 -35 -34 -43 0 -8 -8 -26 -19 -40 -10 -15
-21 -44 -25 -64 -4 -21 -13 -43 -20 -51 -15 -14 -31 -59 -25 -67 2 -3 10 -4
17 -2 6 2 12 -2 12 -7 0 -14 -34 -23 -62 -16 -16 4 -29 1 -37 -9 -8 -9 -29
-16 -48 -16 -22 0 -36 -6 -40 -16 -4 -12 -14 -14 -34 -10 -25 5 -29 3 -29 -18
0 -13 -7 -29 -16 -36 -13 -12 -12 -15 13 -25 16 -7 43 -27 61 -44 31 -31 52
-34 52 -6 0 7 34 33 77 57 97 55 111 69 203 203 26 39 133 180 140 185 26 20
106 132 126 179 77 172 96 342 53 460 -32 87 -54 94 -45 15z"/>
<path d="M1820 1712 c-29 -23 -22 -64 14 -88 23 -14 27 -14 50 1 32 21 34 57
6 85 -25 25 -41 25 -70 2z"/>
<path d="M1663 1657 c15 -15 32 -27 36 -27 4 0 13 -11 19 -25 15 -32 28 -32
35 2 6 31 -24 62 -60 63 -12 0 -30 3 -40 7 -12 4 -9 -2 10 -20z"/>
<path d="M2514 1565 c3 -8 1 -15 -4 -15 -6 0 -10 -4 -10 -10 0 -12 27 -13 34
-1 8 12 -4 41 -16 41 -6 0 -8 -7 -4 -15z"/>
<path d="M1750 1560 c0 -5 5 -10 11 -10 5 0 7 5 4 10 -3 6 -8 10 -11 10 -2 0
-4 -4 -4 -10z"/>
<path d="M1920 1490 c0 -6 7 -10 15 -10 8 0 15 2 15 4 0 2 -7 6 -15 10 -8 3
-15 1 -15 -4z"/>
<path d="M1962 1468 c4 -12 103 -67 120 -68 16 0 -16 48 -42 63 -33 20 -84 23
-78 5z"/>
<path d="M2470 1458 c0 -19 2 -20 10 -8 13 19 13 30 0 30 -5 0 -10 -10 -10
-22z"/>
<path d="M160 1165 c0 -8 4 -23 9 -33 5 -9 14 -28 19 -42 11 -25 11 -25 11 7
1 35 -17 83 -31 83 -4 0 -8 -7 -8 -15z"/>
<path d="M1958 1148 c-7 -19 7 -125 14 -108 11 28 17 77 11 99 -6 23 -18 28
-25 9z"/>
<path d="M2 890 c3 -33 18 -84 37 -125 48 -102 112 -217 119 -211 3 3 0 16 -6
29 -7 12 -39 94 -72 182 -69 182 -85 207 -78 125z"/>
<path d="M2013 880 c-25 -10 -38 -48 -29 -78 4 -11 20 -25 37 -32 27 -11 34
-10 57 7 30 22 41 73 20 91 -20 16 -61 22 -85 12z"/>
<path d="M155 775 c-8 -81 3 -143 29 -164 22 -19 26 8 10 90 -8 41 -17 90 -20
109 -8 54 -12 47 -19 -35z"/>
<path d="M4108 810 c-9 -19 -27 -69 -39 -110 -32 -105 -72 -201 -116 -273 -44
-74 -113 -164 -113 -148 0 12 4 22 35 79 31 60 13 142 -32 142 -17 0 -17 28 0
60 8 14 17 41 20 59 6 27 4 32 -10 29 -34 -6 -57 -68 -65 -168 -8 -123 -27
-338 -31 -370 -2 -14 -7 -44 -11 -68 -7 -40 -7 -42 18 -42 19 0 26 5 26 19 0
11 5 23 10 26 6 3 10 15 10 25 0 23 35 88 100 185 61 93 172 313 199 397 16
46 21 85 19 130 l-3 63 -17 -35z"/>
<path d="M1893 745 c0 -27 2 -38 4 -22 2 15 2 37 0 50 -2 12 -4 0 -4 -28z"/>
<path d="M1893 570 c0 -30 2 -43 4 -27 2 15 2 39 0 55 -2 15 -4 2 -4 -28z"/>
<path d="M160 530 c0 -5 5 -10 11 -10 5 0 7 5 4 10 -3 6 -8 10 -11 10 -2 0 -4
-4 -4 -10z"/>
<path d="M184 494 c3 -8 6 -18 6 -20 0 -2 5 -4 10 -4 16 0 11 27 -6 34 -12 5
-15 2 -10 -10z"/>
<path d="M1883 450 c0 -25 2 -35 4 -22 2 12 2 32 0 45 -2 12 -4 2 -4 -23z"/>
<path d="M3430 251 c0 -10 -9 -12 -35 -7 -35 7 -36 6 -29 -21 4 -15 8 -29 9
-31 5 -6 135 -3 145 3 20 13 9 34 -22 41 -18 4 -37 7 -42 5 -5 -1 -13 4 -17
11 -7 11 -9 10 -9 -1z"/>
<path d="M1862 220 c0 -14 2 -19 5 -12 2 6 2 18 0 25 -3 6 -5 1 -5 -13z"/>
<path d="M198 153 c-3 -27 0 -54 5 -60 5 -7 6 -20 3 -29 -9 -24 4 -64 22 -64
13 0 14 12 9 78 -7 86 -15 122 -27 122 -4 0 -10 -21 -12 -47z"/>
<path d="M1861 154 c0 -11 3 -14 6 -6 3 7 2 16 -1 19 -3 4 -6 -2 -5 -13z"/>
</g>
</svg>
